Coordinates
version=1
nRows=26
nColumns=24
inDegrees=yes

Units are S.I. units (second, meters, Newtons, ...)
Angles are in degrees.

endheader
time	pelvis_tilt	pelvis_list	pelvis_rotation	pelvis_tx	pelvis_ty	pelvis_tz	hip_flexion_r	hip_adduction_r	hip_rotation_r	knee_angle_r	ankle_angle_r	subtalar_angle_r	mtp_angle_r	hip_flexion_l	hip_adduction_l	hip_rotation_l	knee_angle_l	ankle_angle_l	subtalar_angle_l	mtp_angle_l	lumbar_extension	lumbar_bending	lumbar_rotation
      3.50000000	      0.70858868	      1.13879442	      7.86702251	     -2.85407582	      0.91077595	      0.19758567	     24.20417656	      0.29045578	     -9.17531503	     -5.85182926	      4.40077376	      2.01600089	      0.00000000	    -18.62874871	      4.28006444	      7.85654945	    -13.06379572	     20.14498934	     -1.34526560	      0.00000000	    -20.20370759	      1.03043976	     -6.77548169
      3.51000000	      0.62998110	      0.65852497	      7.64883231	     -2.83882858	      0.90969876	      0.19800606	     24.74401032	      0.93470448	     -8.45443545	     -7.95594431	      3.37675461	      0.94020100	      0.00000000	    -18.31212329	      3.70874847	      6.44847211	    -15.11459436	     19.26774321	     -0.39000562	      0.00000000	    -20.05576827	      1.70351281	     -6.50449430
      3.52000000	      0.50833054	      0.12523253	      7.36097319	     -2.82352434	      0.90891000	      0.19857540	     25.44544622	      1.68161889	     -7.38341864	    -10.42502451	      2.48126314	     -0.02351402	      0.00000000	    -17.68530760	      3.07738914	      4.78145988	    -17.58087306	     18.00094673	      0.56628856	      0.00000000	    -19.86014742	      2.41753820	     -6.20780541
      3.53000000	      0.36592816	     -0.43288624	      7.00839348	     -2.80818623	      0.90839162	      0.19924035	     26.27773365	      2.49653533	     -6.30161617	    -13.20260681	      2.21033345	     -0.47835641	      0.00000000	    -16.78858313	      2.42328072	      3.11702727	    -20.41940449	     16.12495441	      1.08212613	      0.00000000	    -19.64198160	      3.14678470	     -5.87018868
      3.54000000	      0.34857225	     -1.02179348	      6.60358911	     -2.79282786	      0.90829617	      0.19999908	     26.98923341	      3.39519075	     -5.41358455	    -16.05877816	      2.33567419	     -0.67105112	      0.00000000	    -15.77145759	      1.68745957	      1.38017671	    -23.60731869	     13.68000591	      1.23556444	      0.00000000	    -19.58336262	      3.91084194	     -5.48404201
      3.55000000	      0.26298475	     -1.58943504	      6.27677783	     -2.77752561	      0.90829395	      0.20068269	     27.68662512	      4.25595863	     -4.70527895	    -18.80495382	      2.97825183	     -0.87556624	      0.00000000	    -14.39250164	      0.92046035	     -0.11912938	    -27.18298912	     10.67935846	      1.12583051	      0.00000000	    -19.42716161	      4.65008553	     -5.23432191
      3.56000000	      0.21650607	     -2.11638016	      5.98451139	     -2.76232941	      0.90849288	      0.20130609	     28.18143622	      5.06013312	     -4.27359041	    -21.28253650	      3.99486645	     -0.97838322	      0.00000000	    -12.83858231	      0.17186325	     -1.31293288	    -30.97339592	      7.14864136	      0.43915926	      0.00000000	    -19.31489769	      5.33763232	     -5.02143845
      3.57000000	      0.20553251	     -2.63657093	      5.79660967	     -2.74729058	      0.90888218	      0.20182365	     28.38914991	      5.82245580	     -4.05607329	    -23.31433855	      5.20271121	     -1.14793297	      0.00000000	    -11.11459696	     -0.60591909	     -2.15937110	    -34.91858508	      3.44614550	     -0.51515026	      0.00000000	    -19.22764865	      6.01443729	     -4.87918337
      3.58000000	      0.18733289	     -3.15190333	      5.72158507	     -2.73249912	      0.90940710	      0.20223915	     28.32433302	      6.53872575	     -4.00112680	    -24.82669834	      6.46975190	     -1.40660268	      0.00000000	     -9.20008712	     -1.38765483	     -2.63753626	    -38.94023283	      0.00684628	     -1.49341720	      0.00000000	    -19.12156645	      6.68044776	     -4.82407342
      3.59000000	      0.15536520	     -3.67014623	      5.76715290	     -2.71799507	      0.91009706	      0.20256590	     27.99240965	      7.21965319	     -4.05432702	    -25.80609178	      7.70922812	     -1.69053053	      0.00000000	     -7.12692470	     -2.16240468	     -2.77199395	    -42.93836882	     -2.76315065	     -2.29709878	      0.00000000	    -18.97713440	      7.32674284	     -4.81711843
      3.60000000	      0.10285633	     -4.17816938	      5.89942763	     -2.70381705	      0.91099089	      0.20281102	     27.43720349	      7.85675881	     -4.19461509	    -26.30983649	      8.88363001	     -1.92486470	      0.00000000	     -4.93445758	     -2.88071595	     -2.61986046	    -46.80511059	     -4.62070351	     -2.87497354	      0.00000000	    -18.79844166	      7.94244550	     -4.84719532
      3.61000000	      0.05392078	     -4.67221973	      6.10188382	     -2.68995600	      0.91217290	      0.20297447	     26.67576990	      8.45023468	     -4.41944184	    -26.41154317	      9.94743937	     -2.07446052	      0.00000000	     -2.68919850	     -3.52075323	     -2.24085727	    -50.44583862	     -5.45688206	     -3.20915416	      0.00000000	    -18.61278141	      8.51874306	     -4.86232027
      3.62000000	      0.01653517	     -5.11564243	      6.34196155	     -2.67638818	      0.91370134	      0.20306410	     25.74672842	      8.97684540	     -4.67494010	    -26.20703117	     10.89336536	     -2.10061954	      0.00000000	     -0.44398484	     -4.02605112	     -1.70313072	    -53.76439898	     -5.39405782	     -3.36703434	      0.00000000	    -18.43342941	      9.01229152	     -4.86212726
      3.63000000	     -0.01876181	     -5.46496420	      6.55645126	     -2.66306573	      0.91558408	      0.20313659	     24.70708980	      9.41517618	     -4.88381683	    -25.80534342	     11.76937708	     -1.93727287	      0.00000000	      1.76302805	     -4.34783390	     -1.11907938	    -56.68123799	     -4.63702825	     -3.38783240	      0.00000000	    -18.26089615	      9.36703271	     -4.84837666
      3.64000000	     -0.02742917	     -5.69947807	      6.72559705	     -2.64994939	      0.91784208	      0.20318388	     23.57354998	      9.74076284	     -5.07476477	    -25.29554174	     12.54059767	     -1.69008039	      0.00000000	      3.87616857	     -4.47377416	     -0.54889660	    -59.14745772	     -3.49898873	     -3.37136218	      0.00000000	    -18.13855415	      9.56720442	     -4.77176865
      3.65000000	     -0.03905706	     -5.79682398	      6.80146292	     -2.63696815	      0.92039059	      0.20327871	     22.39895066	      9.95243575	     -5.14361762	    -24.74046133	     13.25461311	     -1.30549259	      0.00000000	      5.89525816	     -4.39796991	     -0.07355155	    -61.13868908	     -2.18621221	     -3.32184275	      0.00000000	    -18.03139505	      9.57715024	     -4.66145708
      3.66000000	     -0.05724101	     -5.76894760	      6.78170637	     -2.62407823	      0.92314533	      0.20342517	     21.20486209	     10.05751743	     -5.09588986	    -24.17367303	     13.90371699	     -0.85353142	      0.00000000	      7.81705589	     -4.15507555	      0.28241584	    -62.66638903	     -0.89538619	     -3.27552992	      0.00000000	    -17.93684109	      9.41460527	     -4.50278795
      3.67000000	     -0.09235029	     -5.64087880	      6.66953370	     -2.61124161	      0.92599691	      0.20364526	     20.00704794	     10.08532572	     -4.90561412	    -23.59537844	     14.48429975	     -0.45220387	      0.00000000	      9.65278882	     -3.79287861	      0.51370020	    -63.76016569	      0.29622794	     -3.23956729	      0.00000000	    -17.84027767	      9.11069494	     -4.26826017
      3.68000000	     -0.13907520	     -5.40941855	      6.50564844	     -2.59843963	      0.92888846	      0.20388198	     18.79722718	     10.00660691	     -4.66364210	    -22.99780076	     15.01973100	     -0.00745695	      0.00000000	     11.39405173	     -3.31346472	      0.65639241	    -64.43735214	      1.40646628	     -3.23864329	      0.00000000	    -17.74070897	      8.67223529	     -4.05665523
      3.69000000	     -0.20164372	     -5.11043424	      6.27249673	     -2.58567411	      0.93173017	      0.20420918	     17.57136804	      9.89092636	     -4.22965006	    -22.35004367	     15.46204562	      0.24192272	      0.00000000	     13.04972322	     -2.77717658	      0.69201804	    -64.73431540	      2.39234820	     -3.33965826	      0.00000000	    -17.64094607	      8.13151519	     -3.77845342
      3.70000000	     -0.29411267	     -4.79072536	      6.03909486	     -2.57295386	      0.93443746	      0.20452771	     16.34307993	      9.74203171	     -3.79035242	    -21.62240799	     15.83456612	      0.47194161	      0.00000000	     14.65951120	     -2.23186918	      0.68935773	    -64.69770884	      3.35700324	     -3.51247981	      0.00000000	    -17.51064241	      7.56496396	     -3.55210270
      3.71000000	     -0.38859218	     -4.45904744	      5.82497371	     -2.56030425	      0.93700485	      0.20480480	     15.08438639	      9.56704560	     -3.37440634	    -20.80902400	     16.16143721	      0.60524825	      0.00000000	     16.19433990	     -1.68198965	      0.67644215	    -64.34409485	      4.26687355	     -3.90353486	      0.00000000	    -17.39178604	      6.99071965	     -3.34195973
      3.72000000	     -0.51525275	     -4.11300084	      5.59782850	     -2.54775576	      0.93936677	      0.20510101	     13.84024804	      9.37151700	     -2.92681558	    -19.93577693	     16.45734315	      0.71769713	      0.00000000	     17.68128511	     -1.13720592	      0.62307227	    -63.68457477	      5.12047344	     -4.42520544	      0.00000000	    -17.26730315	      6.38951861	     -3.12260373
      3.73000000	     -0.64936268	     -3.73603528	      5.34128258	     -2.53531907	      0.94154109	      0.20542730	     12.59312173	      9.14682417	     -2.39238667	    -19.02647185	     16.73501429	      0.75958128	      0.00000000	     19.08273194	     -0.57802925	      0.53212170	    -62.71750202	      5.76157735	     -5.22623949	      0.00000000	    -17.17319076	      5.73779264	     -2.82689876
      3.74000000	     -0.76272433	     -3.39879357	      5.12761669	     -2.52298471	      0.94351075	      0.20565145	     11.31830483	      8.94116891	     -1.91453325	    -18.06373565	     16.90459661	      0.71987082	      0.00000000	     20.39116539	     -0.06796369	      0.47837903	    -61.47715557	      6.25245471	     -6.38650388	      0.00000000	    -17.12717056	      5.15998375	     -2.63053536
      3.75000000	     -0.88398032	     -3.05774997	      4.88305708	     -2.51076626	      0.94520827	      0.20589384	     10.08765936	      8.71940057	     -1.42345147	    -17.14936608	     17.16915719	      0.74673479	      0.00000000	     21.61989965	      0.41311227	      0.39083724	    -59.97012642	      6.68911442	     -7.54501593	      0.00000000	    -17.11034768	      4.56720143	     -2.37169105
